<svg width="21" height="16" viewBox="0 0 21 16" fill="none" xmlns="http://www.w3.org/2000/svg">
<path d="M20.1111 0.499957C19.2595 1.06285 18.3166 1.49338 17.3187 1.77496C16.7831 1.19788 16.0713 0.788867 15.2796 0.603229C14.4879 0.417591 13.6544 0.464287 12.8919 0.737001C12.1294 1.00972 11.4747 1.49529 11.0163 2.12805C10.5579 2.76082 10.3179 3.51024 10.3289 4.27496V5.10829C8.76605 5.14626 7.21747 4.82147 5.82104 4.16283C4.42462 3.50419 3.22369 2.53215 2.32522 1.33329C2.32522 1.33329 -1.23196 8.83329 6.77169 12.1666C4.94021 13.3316 2.75845 13.9157 0.546631 13.8333C8.55028 18 18.3325 13.8333 18.3325 4.24996C18.3317 4.01783 18.3079 3.78629 18.2614 3.55829C19.169 2.71953 19.8095 1.66055 20.1111 0.499957V0.499957Z" fill="white"/>
</svg>
